<?xml version="1.0" standalone="no"?>
<!DOCTYPE svg PUBLIC "-//W3C//DTD SVG 20010904//EN"
 "http://www.w3.org/TR/2001/REC-SVG-20010904/DTD/svg10.dtd">
<svg version="1.0" xmlns="http://www.w3.org/2000/svg"
 width="700.000000pt" height="700.000000pt" viewBox="0 0 700.000000 700.000000"
 preserveAspectRatio="xMidYMid meet">
<metadata>
Created by potrace 1.11, written by Peter Selinger 2001-2013
</metadata>
<g transform="translate(0.000000,700.000000) scale(0.100000,-0.100000)"
fill="#000000" stroke="none">
<path d="M1729 5486 c-2 -2 -33 -7 -69 -11 -90 -10 -270 -57 -358 -95 -289
-123 -508 -333 -600 -576 -30 -79 -37 -102 -48 -174 -3 -19 -7 -41 -10 -49 -6
-19 -5 -190 1 -261 17 -176 101 -354 226 -479 122 -121 293 -210 499 -260 69
-16 249 -60 400 -96 151 -36 320 -77 375 -91 98 -24 116 -28 173 -40 15 -3 68
-19 117 -36 272 -92 445 -232 522 -421 66 -162 58 -408 -19 -577 -126 -276
-473 -490 -858 -528 -86 -8 -300 -8 -375 1 -311 35 -520 132 -719 331 -118
119 -174 231 -226 451 -11 50 -23 98 -26 108 -8 25 -57 47 -107 47 -66 0 -105
-36 -124 -115 -7 -30 -6 -844 1 -885 13 -69 60 -110 129 -110 53 0 91 23 113
67 18 38 21 68 23 198 l1 69 48 -45 c170 -165 406 -294 627 -344 189 -43 249
-50 455 -49 186 0 249 5 390 34 176 36 374 118 514 212 82 56 100 71 188 158
215 214 310 502 277 845 -20 209 -110 400 -253 538 -43 41 -205 157 -220 157
-2 0 -33 13 -68 29 -50 23 -212 67 -388 106 -8 2 -105 24 -215 50 -110 25
-294 68 -410 95 -284 66 -393 106 -530 194 -127 82 -223 213 -259 355 -14 56
-15 245 -1 311 23 110 88 231 171 316 145 150 393 267 619 291 80 9 303 9 355
0 116 -19 155 -28 224 -51 43 -15 96 -36 119 -47 141 -71 284 -203 354 -325
49 -85 55 -101 93 -244 39 -149 46 -165 76 -179 62 -28 141 -4 171 52 16 29
18 70 18 467 0 411 -1 437 -19 463 -23 35 -65 57 -106 57 -90 0 -135 -80 -139
-248 -1 -23 -3 -22 -48 15 -189 156 -434 265 -688 305 -66 10 -388 21 -396 14z"/>
<path d="M3402 5391 c-84 -28 -117 -121 -69 -192 37 -55 64 -63 235 -67 132
-4 152 -6 153 -21 3 -65 1 -3212 -2 -3215 -2 -2 -71 -6 -154 -8 -166 -5 -196
-13 -230 -64 -46 -67 -20 -160 53 -192 32 -14 90 -16 457 -16 231 -1 437 3
458 7 47 10 97 57 98 94 4 80 -11 118 -57 145 -36 21 -86 27 -239 28 l-111 0
1 778 0 777 900 0 900 0 1 -777 0 -778 -120 -1 c-67 0 -130 -2 -141 -4 -11 -2
-33 -6 -50 -10 -113 -22 -130 -188 -25 -241 32 -16 75 -18 450 -19 228 -1 434
2 457 6 50 10 87 34 102 67 18 37 13 102 -9 138 -32 51 -78 62 -262 63 l-128
1 0 1620 0 1620 123 1 c67 0 139 2 160 5 82 8 127 56 127 134 0 59 -26 97 -80
117 -40 16 -88 18 -465 18 -448 -1 -471 -3 -515 -50 -27 -29 -38 -102 -20
-145 7 -16 29 -40 48 -52 33 -20 53 -23 194 -26 l158 -4 -2 -702 -3 -701 -900
-3 -901 -2 1 702 c0 459 3 702 10 704 6 1 75 4 155 7 109 2 153 7 176 20 92
48 92 183 -1 231 -39 20 -55 21 -463 22 -358 0 -430 -2 -470 -15z"/>
</g>
</svg>
